<svg xmlns="http://www.w3.org/2000/svg" xmlns:xlink="http://www.w3.org/1999/xlink" version="1.1" x="0px" y="0px" viewBox="0 0 90 112.5" enable-background="new 0 0 90 90" xml:space="preserve"><path fill-rule="evenodd" clip-rule="evenodd" d="M44.987,44.971c0,0.006,0,0.011,0,0.011l-0.006,0.005  C44.981,44.971,44.987,44.988,44.987,44.971z"/><path fill-rule="evenodd" clip-rule="evenodd" d="M80.111,26.945c-0.469,0.011-0.943,0.084-1.412,0.229  c-1.244,0.391-2.432,1.308-3.291,2.871L64.637,49.414l-2.182,3.921c0.066,0,0.145,0,0.213,0c2.51,0.016,4.557,0.235,5.943,0.584  c1.463,0.358,1.77,1.047,0.604,2.317c-0.975,1.063-2.666,2.26-4.828,3.541c-4.322,2.568-10.688,5.339-18.291,7.376  c-7.604,2.036-14.5,2.823-19.526,2.76c-2.511-0.031-4.568-0.254-5.954-0.656c-1.624-0.469-1.453-2.021-0.03-2.839l-3.322-2.912  c-2.547,1.475-4.262,4.01-3.652,6.646c0.5,2.172,2.303,6.874,7.548,9.661c5.312,2.822,13.9,3.629,28.269-0.224  c14.375-3.85,21.406-8.844,24.6-13.943c3.146-5.038,2.344-10.005,1.703-12.141c-0.338-1.14-0.959-2.23-2.166-2.938l10.098-16.266  C86.256,30.123,83.371,26.904,80.111,26.945z"/><path fill-rule="evenodd" clip-rule="evenodd" d="M42.391,50.264c-0.473-0.276-0.635-0.876-0.357-1.35l5.947-10.303  c0.275-0.473,0.875-0.634,1.344-0.364c0.475,0.276,0.635,0.875,0.365,1.344l-5.953,10.307  C43.465,50.373,42.866,50.535,42.391,50.264z M47.033,52.941c-0.475-0.272-0.631-0.871-0.359-1.344l6.516-11.287  c0.275-0.475,0.875-0.636,1.344-0.361c0.473,0.271,0.635,0.871,0.363,1.345l-6.516,11.286  C48.105,53.054,47.506,53.217,47.033,52.941z M51.678,55.623c-0.473-0.271-0.635-0.875-0.363-1.349l5.953-10.303  c0.27-0.475,0.869-0.636,1.344-0.36c0.473,0.272,0.635,0.871,0.359,1.344l-5.949,10.308C52.746,55.732,52.146,55.893,51.678,55.623z   M52.174,61.341c0.973,0.563,2.213,0.229,2.775-0.744L61.83,48.68c1.629-2.828,1.947-7.036-0.543-10.276  c-1.129-1.474-1.469-2.542-1.035-4.078c0.426-1.537,1.01-2.516,1.738-3.776l12.34-17.193c1.416-2.057-0.178-4.26-1.531-5.041  c-1.355-0.781-4.063-1.063-5.131,1.192l-8.719,19.281c-0.729,1.265-1.281,2.256-2.4,3.401c-1.121,1.14-2.215,1.38-4.053,1.136  c-4.053-0.532-7.537,1.848-9.167,4.67l-6.879,11.917c-0.563,0.973-0.233,2.213,0.74,2.776l7.495,4.323L52.174,61.341z"/><path fill-rule="evenodd" clip-rule="evenodd" d="M37.216,65.154c0.39-0.762,0.104-2.005-0.5-3.35  c-0.229-0.505-0.693-0.787-1.183-0.27c-0.265,0.276-0.458,0.5-0.646,0.77l-1.072-0.765c-0.423-0.303-1.027-0.084-1.282,0.369  l-0.558,1.017c-0.256,0.458-0.114,1.088,0.37,1.281l1.208,0.489c-0.162,0.375-0.244,0.651-0.296,0.964  c-0.13,0.702,0.313,0.963,0.859,0.858C35.559,66.242,36.777,65.893,37.216,65.154z"/><path d="M30.08,64.065c-5.021-0.817-8.401-3.296-10.479-7.713C18.179,59.461,20.326,69.378,30.08,64.065z"/><path d="M34.684,32.816c-6.162,1.864-6.271,5.692-5.402,8.609c0.871,2.91,0.006,5.65-2.03,8.238  c4.281-0.452,6.697-4.203,4.979-8.572C31.179,38.419,32.763,35.523,34.684,32.816z"/><path d="M34.241,55.611c1.115,1.902,2.787-0.853,3.938,1.434c1.36,2.687,3.167,0.943,3.746,3.823  c0.463,2.296-3.058,1.703-3.73,0.088c-1.463-3.405-3.12,0.38-4.969-3.396c-0.645-1.327-5.233-0.155-3.484-2.776  C30.992,52.909,32.935,53.383,34.241,55.611z"/><path d="M25.252,58.201c0.109-2.199-2.792-0.85-2.47-3.391c0.38-2.984-2.093-2.552-0.962-5.266c0.896-2.162,3.489,0.301,3.14,2.014  c-0.688,3.642,1.891,1.402,2.219,5.595C27.392,59.936,25.069,61.774,25.252,58.201z"/></svg>